<?xml version="1.0" standalone="no"?>
<!DOCTYPE svg PUBLIC "-//W3C//DTD SVG 20010904//EN"
 "http://www.w3.org/TR/2001/REC-SVG-20010904/DTD/svg10.dtd">
<svg version="1.0" xmlns="http://www.w3.org/2000/svg"
 width="1200.000000pt" height="1200.000000pt" viewBox="0 0 1200.000000 1200.000000"
 preserveAspectRatio="xMidYMid meet">
<metadata>
Created by potrace 1.11, written by Peter Selinger 2001-2013
</metadata>
<g transform="translate(0.000000,1200.000000) scale(0.100000,-0.100000)"
fill="#000000" stroke="none">
<path d="M1700 11989 c-349 -39 -710 -188 -975 -402 -104 -84 -277 -262 -346
-357 -156 -213 -260 -431 -319 -669 -64 -255 -60 61 -60 -4552 0 -2895 3
-4230 11 -4297 87 -800 657 -1459 1428 -1652 255 -64 -61 -60 4552 -60 2895 0
4230 3 4297 11 363 39 715 183 987 402 114 92 299 287 375 395 130 185 237
417 291 632 63 254 59 -61 59 4551 0 2895 -3 4230 -11 4297 -40 368 -182 715
-406 992 -81 100 -260 273 -353 341 -213 156 -431 260 -669 319 -255 64 64 60
-4569 59 -2319 -1 -4251 -5 -4292 -10z m951 -5088 l29 -29 0 -1009 c0 -659 4
-1047 11 -1118 21 -212 75 -350 156 -406 136 -94 421 -113 633 -43 207 69 378
233 443 423 22 66 22 69 25 874 l3 807 -210 0 c-212 0 -253 6 -277 38 -18 24
-19 430 -1 453 29 38 42 39 592 39 566 0 582 -1 599 -45 3 -9 6 -601 6 -1315
l0 -1298 166 -4 166 -3 24 -28 c24 -28 24 -31 24 -228 0 -199 0 -200 -25 -224
l-24 -25 -390 0 c-409 0 -428 2 -451 45 -6 12 -26 108 -43 214 l-32 192 -58
-68 c-142 -166 -335 -303 -529 -377 -264 -99 -647 -110 -909 -25 -336 108
-519 336 -597 743 -12 68 -16 228 -19 999 l-4 917 -174 0 c-175 0 -218 7 -241
38 -18 24 -19 430 -1 453 29 38 40 38 565 39 l514 0 29 -29z m3782 15 c18 -7
41 -23 51 -35 11 -12 146 -244 300 -516 155 -272 285 -496 290 -497 4 -2 97
116 206 262 l198 265 -140 5 c-138 5 -140 5 -164 33 -24 28 -24 31 -24 232 0
201 0 204 24 232 l24 28 650 3 650 2 31 -26 31 -26 0 -208 c0 -206 0 -209 -24
-237 l-24 -28 -219 -3 -218 -4 -350 -469 c-192 -259 -351 -476 -353 -483 -2
-7 157 -274 353 -592 l355 -579 244 -5 c242 -5 245 -5 270 -29 l26 -24 0 -204
c0 -203 0 -204 -25 -228 l-24 -25 -457 0 c-442 0 -459 1 -500 21 -53 25 -42 8
-404 622 -236 400 -296 495 -306 485 -6 -7 -111 -149 -233 -315 l-220 -303
180 0 c217 0 242 -7 259 -71 7 -26 10 -107 8 -216 l-3 -175 -28 -24 -29 -24
-710 2 -710 3 -19 24 c-17 21 -19 41 -19 222 0 195 0 198 24 226 l24 28 194 3
193 4 385 514 c212 283 393 525 402 538 17 23 14 29 -300 547 l-317 524 -232
5 c-302 7 -277 -16 -281 244 -4 211 5 257 50 276 13 5 215 9 451 9 340 1 434
-2 460 -13z"/>
</g>
</svg>
